<svg version="1.0" xmlns="http://www.w3.org/2000/svg"
 width="157.000000pt" height="88.000000pt" viewBox="0 0  "
 preserveAspectRatio="xMidYMid meet">

<g transform="translate(0.000000,126.000000) scale(0.100000,-0.140000)"
fill="#000000" stroke="none">
<path d="M430 821 c-8 -6 -69 -8 -135 -6 -132 4 -175 -6 -109 -24 21 -6 46
-11 53 -11 11 0 12 -3 5 -10 -8 -8 -28 -4 -67 10 -67 25 -103 24 -99 -3 2 -10
-2 -25 -8 -32 -12 -15 -8 -205 5 -236 3 -10 2 -20 -4 -24 -14 -8 -14 -138 -1
-151 8 -8 8 -19 0 -38 -13 -36 -13 -153 0 -161 6 -4 10 -16 8 -28 -3 -19 2
-22 27 -21 17 0 34 -5 38 -13 9 -15 154 -18 227 -3 30 5 49 5 58 -2 9 -8 116
-9 340 -5 419 7 510 22 595 97 44 39 52 91 16 111 -19 10 -21 17 -16 69 l5 58
-52 26 c-28 14 -61 26 -72 26 -12 0 -36 5 -53 11 -37 13 -26 29 19 29 33 0
128 35 160 59 21 15 25 27 28 81 3 54 0 66 -20 87 -74 79 -278 113 -678 113
-140 0 -262 -4 -270 -9z m73 -86 c39 -16 42 -35 4 -35 -33 0 -49 -14 -41 -35
6 -16 4 -17 -22 -11 -45 10 -135 48 -130 54 3 3 30 5 61 6 58 1 80 19 31 24
-23 3 -26 6 -15 13 17 12 62 6 112 -16z m242 -5 c-3 -5 -10 -10 -16 -10 -5 0
-9 5 -9 10 0 6 7 10 16 10 8 0 12 -4 9 -10z m25 -47 c41 -8 127 -58 166 -97
11 -12 35 -16 85 -16 75 0 85 -13 19 -24 -47 -7 -51 -20 -12 -40 28 -15 26
-18 -30 -30 -16 -4 -28 -13 -28 -21 0 -13 -11 -15 -67 -9 -38 3 -79 9 -93 14
-14 5 -34 11 -45 13 -13 2 -6 6 20 11 77 14 86 17 80 26 -3 6 -21 10 -38 11
-30 1 -29 2 11 11 25 5 40 14 36 20 -10 15 -58 2 -106 -29 -33 -22 -52 -28
-89 -26 -57 3 -149 31 -155 48 -5 13 -90 40 -158 50 -58 9 -31 23 54 28 117 7
172 26 150 52 -5 6 -6 15 -2 19 8 9 135 2 202 -11z m440 -103 c0 -5 -9 -10
-21 -10 -11 0 -17 5 -14 10 3 6 13 10 21 10 8 0 14 -4 14 -10z m-1056 -61 c-7
-12 -54 -12 -54 0 0 11 30 19 47 13 7 -2 10 -8 7 -13z m951 -59 c3 -5 -3 -10
-14 -10 -11 0 -23 5 -26 10 -3 6 3 10 14 10 11 0 23 -4 26 -10z m59 -25 c-4
-10 0 -15 11 -15 9 0 13 -4 10 -10 -8 -12 -65 -13 -84 -1 -11 7 -9 10 8 16 12
3 19 11 16 16 -4 5 5 9 19 9 18 0 24 -4 20 -15z m-374 -49 c25 -9 40 -25 57
-57 12 -24 23 -49 23 -56 0 -20 -60 -56 -119 -69 -64 -16 -191 -19 -191 -5 0
5 4 11 10 13 5 2 7 13 4 26 -5 16 -14 22 -33 22 -14 0 -46 6 -71 14 -38 11
-42 14 -23 20 12 4 31 2 43 -4 28 -15 88 -2 101 22 6 11 8 29 5 41 -9 36 11
47 88 46 39 0 87 -6 106 -13z m-414 -105 c-7 -11 -55 -20 -61 -11 -8 12 7 20
37 20 16 0 27 -4 24 -9z m104 -39 c0 -4 -5 -13 -11 -19 -17 -17 -4 -30 36 -37
36 -7 58 -26 30 -26 -9 0 -35 -9 -57 -20 -23 -11 -50 -20 -59 -20 -27 0 -33
18 -7 22 12 2 23 8 25 15 5 15 -47 26 -91 17 -24 -4 -36 -2 -36 5 0 6 5 11 10
11 6 0 29 8 53 19 103 45 107 46 107 33z m335 -62 c-3 -5 -10 -10 -16 -10 -5
0 -9 5 -9 10 0 6 7 10 16 10 8 0 12 -4 9 -10z m-71 -16 c9 -3 16 -10 16 -15 0
-14 -24 -11 -46 6 -16 12 -17 14 -2 15 9 0 23 -3 32 -6z m-509 -53 c-12 -12
-65 -25 -65 -17 0 8 39 24 60 25 9 1 10 -2 5 -8z"/>
<path d="M870 480 c0 -5 9 -10 21 -10 11 0 17 5 14 10 -3 6 -13 10 -21 10 -8
0 -14 -4 -14 -10z"/>
</g>
</svg>

